{
  "asset": {
    "version": "2.0",
    "generator": "THREE.GLTFExporter"
  },
  "scenes": [
    {
      "nodes": [
        8
      ],
      "name": "AuxScene"
    }
  ],
  "scene": 0,
  "nodes": [
    {
      "matrix": [
        -0.8155139816800516,
        -0.12926261833884317,
        -0.5641171165498658,
        0,
        -0.1063073492310364,
        0.9916103950141839,
        -0.07353619516458473,
        0,
        0.5688898779059256,
        2.0816681711721682e-17,
        -0.8224137078236119,
        0,
        11.371156183968974,
        8.300747032249959,
        8.04521165347408,
        1
      ],
      "name": "Cinema_4D_Editor",
      "camera": 0
    },
    {
      "name": "respaldar_2",
      "mesh": 0
    },
    {
      "matrix": [
        1,
        0,
        0,
        0,
        0,
        2.220446049250313e-16,
        -1.0000000000000002,
        0,
        0,
        1.0000000000000002,
        2.220446049250313e-16,
        0,
        -0.47602610541175494,
        2.752207779340237,
        -1.6996496898252165,
        1
      ],
      "name": "respaldar",
      "children": [
        1
      ]
    },
    {
      "name": "Asiento_2",
      "mesh": 1
    },
    {
      "matrix": [
        1,
        0,
        0,
        0,
        0,
        1,
        0,
        0,
        0,
        0,
        1,
        0,
        -0.47602610541175494,
        -0.08612340444810052,
        0.21251218239738448,
        1
      ],
      "name": "Asiento",
      "children": [
        3
      ]
    },
    {
      "name": "silla_2",
      "mesh": 2
    },
    {
      "matrix": [
        1,
        0,
        0,
        0,
        0,
        1,
        0,
        0,
        0,
        0,
        1,
        0,
        0.9520522108235099,
        -2.6660843748921366,
        1.487137507427832,
        1
      ],
      "name": "silla",
      "children": [
        5
      ]
    },
    {
      "matrix": [
        1,
        0,
        0,
        0,
        0,
        1,
        0,
        0,
        0,
        0,
        1,
        0,
        0.5011768277378348,
        5.277044282722191,
        0.08998126571710921,
        1
      ],
      "name": "Nulo_",
      "children": [
        2,
        4,
        6
      ]
    },
    {
      "children": [
        0,
        7
      ]
    }
  ],
  "cameras": [
    {
      "type": "perspective",
      "perspective": {
        "aspectRatio": 1.7777777777777777,
        "yfov": 0.30027711103582555,
        "zfar": 10,
        "znear": 0.000001
      },
      "name": "PerspectiveCamera"
    }
  ],
  "bufferViews": [
    {
      "buffer": 0,
      "byteOffset": 0,
      "byteLength": 24624,
      "target": 34962,
      "byteStride": 12
    },
    {
      "buffer": 0,
      "byteOffset": 24624,
      "byteLength": 24624,
      "target": 34962,
      "byteStride": 12
    },
    {
      "buffer": 0,
      "byteOffset": 49248,
      "byteLength": 16416,
      "target": 34962,
      "byteStride": 8
    },
    {
      "buffer": 0,
      "byteOffset": 65664,
      "byteLength": 4104,
      "target": 34963
    },
    {
      "buffer": 0,
      "byteOffset": 69768,
      "byteLength": 138240,
      "target": 34962,
      "byteStride": 12
    },
    {
      "buffer": 0,
      "byteOffset": 208008,
      "byteLength": 138240,
      "target": 34962,
      "byteStride": 12
    },
    {
      "buffer": 0,
      "byteOffset": 346248,
      "byteLength": 92160,
      "target": 34962,
      "byteStride": 8
    },
    {
      "buffer": 0,
      "byteOffset": 438408,
      "byteLength": 23040,
      "target": 34963
    },
    {
      "buffer": 0,
      "byteOffset": 461448,
      "byteLength": 41904,
      "target": 34962,
      "byteStride": 12
    },
    {
      "buffer": 0,
      "byteOffset": 503352,
      "byteLength": 41904,
      "target": 34962,
      "byteStride": 12
    },
    {
      "buffer": 0,
      "byteOffset": 545256,
      "byteLength": 27936,
      "target": 34962,
      "byteStride": 8
    },
    {
      "buffer": 0,
      "byteOffset": 573192,
      "byteLength": 6984,
      "target": 34963
    }
  ],
  "buffers": [
    {
      "byteLength": 580176,
      "uri": "data:application/octet-stream;base64,"
    }
  ],
  "accessors": [
    {
      "bufferView": 0,
      "componentType": 5126,
      "count": 2052,
      "max": [
        1.3370039463043213,
        0.3316694498062134,
        2.4117331504821777
      ],
      "min": [
        -1.3370039463043213,
        -0.3316694498062134,
        -2.4117331504821777
      ],
      "type": "VEC3"
    },
    {
      "bufferView": 1,
      "componentType": 5126,
      "count": 2052,
      "max": [
        0.9970215559005737,
        0.9907727241516113,
        0.9963491559028625
      ],
      "min": [
        -0.9970215559005737,
        -0.9907727241516113,
        -0.9963491559028625
      ],
      "type": "VEC3"
    },
    {
      "bufferView": 2,
      "componentType": 5126,
      "count": 2052,
      "max": [
        1,
        1
      ],
      "min": [
        0,
        0
      ],
      "type": "VEC2"
    },
    {
      "bufferView": 3,
      "componentType": 5123,
      "count": 2052,
      "max": [
        2051
      ],
      "min": [
        0
      ],
      "type": "SCALAR"
    },
    {
      "bufferView": 4,
      "componentType": 5126,
      "count": 11520,
      "max": [
        1.7832804918289185,
        0.19686593115329742,
        2.0049283504486084
      ],
      "min": [
        -1.7778944969177246,
        -0.4045027792453766,
        -1.9521479606628418
      ],
      "type": "VEC3"
    },
    {
      "bufferView": 5,
      "componentType": 5126,
      "count": 11520,
      "max": [
        0.9999618530273438,
        1,
        0.9999998211860657
      ],
      "min": [
        -0.9999861717224121,
        -1,
        -0.9999998807907104
      ],
      "type": "VEC3"
    },
    {
      "bufferView": 6,
      "componentType": 5126,
      "count": 11520,
      "max": [
        1,
        1
      ],
      "min": [
        0,
        0
      ],
      "type": "VEC2"
    },
    {
      "bufferView": 7,
      "componentType": 5123,
      "count": 11520,
      "max": [
        11519
      ],
      "min": [
        0
      ],
      "type": "SCALAR"
    },
    {
      "bufferView": 8,
      "componentType": 5126,
      "count": 3492,
      "max": [
        0.27174392342567444,
        7.566939830780029,
        0.3085196912288666
      ],
      "min": [
        -3.1279006004333496,
        -2.2127797603607178,
        -3.331104040145874
      ],
      "type": "VEC3"
    },
    {
      "bufferView": 9,
      "componentType": 5126,
      "count": 3492,
      "max": [
        1,
        1,
        1
      ],
      "min": [
        -1,
        -1,
        -1
      ],
      "type": "VEC3"
    },
    {
      "bufferView": 10,
      "componentType": 5126,
      "count": 3492,
      "max": [
        1,
        1
      ],
      "min": [
        -0.18452423810958862,
        0
      ],
      "type": "VEC2"
    },
    {
      "bufferView": 11,
      "componentType": 5123,
      "count": 3492,
      "max": [
        3491
      ],
      "min": [
        0
      ],
      "type": "SCALAR"
    }
  ],
  "materials": [
    {
      "pbrMetallicRoughness": {
        "baseColorFactor": [
          0.8,
          0.8,
          0.8,
          1
        ],
        "metallicFactor": 0.5,
        "roughnessFactor": 0.5,
        "baseColorTexture": {
          "index": 0
        }
      },
      "name": "Mat.2"
    },
    {
      "pbrMetallicRoughness": {
        "baseColorFactor": [
          0.8,
          0.8,
          0.8,
          1
        ],
        "metallicFactor": 0.5,
        "roughnessFactor": 0.5,
        "baseColorTexture": {
          "index": 1
        }
      },
      "name": "Mat.3"
    },
    {
      "pbrMetallicRoughness": {
        "baseColorFactor": [
          0.8,
          0.8,
          0.8,
          1
        ],
        "metallicFactor": 0.5,
        "roughnessFactor": 0.5
      },
      "name": "Ash - Shader"
    }
  ],
  "textures": [
    {
      "sampler": 0,
      "source": 0
    },
    {
      "sampler": 1,
      "source": 1
    }
  ],
  "samplers": [
    {
      "magFilter": 9729,
      "minFilter": 9987
    },
    {
      "magFilter": 9729,
      "minFilter": 9987
    }
  ],
  "images": [
    {
      "mimeType": "image/jpeg",
      "uri": "data:image/jpeg;base64,"
    },
    {
      "mimeType": "image/jpeg",
      "uri": "data:image/jpeg;base64,"
    }
  ],
  "meshes": [
    {
      "primitives": [
        {
          "mode": 4,
          "attributes": {
            "POSITION": 0,
            "NORMAL": 1,
            "TEXCOORD_0": 2
          },
          "indices": 3,
          "material": 0
        }
      ]
    },
    {
      "primitives": [
        {
          "mode": 4,
          "attributes": {
            "POSITION": 4,
            "NORMAL": 5,
            "TEXCOORD_0": 6
          },
          "indices": 7,
          "material": 1
        }
      ]
    },
    {
      "primitives": [
        {
          "mode": 4,
          "attributes": {
            "POSITION": 8,
            "NORMAL": 9,
            "TEXCOORD_0": 10
          },
          "indices": 11,
          "material": 2
        }
      ]
    }
  ]
}